<svg width="72" height="72" viewBox="0 0 72 72" fill="none" xmlns="http://www.w3.org/2000/svg">
<path d="M0 36C0 16.1177 16.1177 0 36 0V0C55.8823 0 72 16.1177 72 36V36C72 55.8823 55.8823 72 36 72V72C16.1177 72 0 55.8823 0 36V36Z" fill="white"/>
<path d="M32.75 46.4531H28.25C27.0078 46.4531 26 45.4453 26 44.2031V27.7031C26 26.4609 27.0078 25.4531 28.25 25.4531H32.75C33.9922 25.4531 35 26.4609 35 27.7031V44.2031C35 45.4453 33.9922 46.4531 32.75 46.4531ZM47 44.2031V27.7031C47 26.4609 45.9922 25.4531 44.75 25.4531H40.25C39.0078 25.4531 38 26.4609 38 27.7031V44.2031C38 45.4453 39.0078 46.4531 40.25 46.4531H44.75C45.9922 46.4531 47 45.4453 47 44.2031Z" fill="url(#paint0_linear_104_23119)"/>
<defs>
<linearGradient id="paint0_linear_104_23119" x1="26" y1="25.4531" x2="53.51" y2="51.4931" gradientUnits="userSpaceOnUse">
<stop stop-color="#FF9385"/>
<stop offset="1" stop-color="#FFBF85"/>
</linearGradient>
</defs>
</svg>
