<svg width="40" height="40" viewBox="0 0 40 40" fill="none" xmlns="http://www.w3.org/2000/svg">
<circle cx="20" cy="20" r="19.5" stroke="url(#paint0_linear_108_23005)"/>
<path d="M25.25 14H14.75C14.1533 14 13.581 14.2371 13.159 14.659C12.7371 15.081 12.5 15.6533 12.5 16.25V23.75C12.5 24.3467 12.7371 24.919 13.159 25.341C13.581 25.7629 14.1533 26 14.75 26H25.25C25.8467 26 26.419 25.7629 26.841 25.341C27.2629 24.919 27.5 24.3467 27.5 23.75V16.25C27.5 15.6533 27.2629 15.081 26.841 14.659C26.419 14.2371 25.8467 14 25.25 14V14ZM14.75 15.5H25.25C25.4489 15.5 25.6397 15.579 25.7803 15.7197C25.921 15.8603 26 16.0511 26 16.25L20 19.91L14 16.25C14 16.0511 14.079 15.8603 14.2197 15.7197C14.3603 15.579 14.5511 15.5 14.75 15.5V15.5ZM26 23.75C26 23.9489 25.921 24.1397 25.7803 24.2803C25.6397 24.421 25.4489 24.5 25.25 24.5H14.75C14.5511 24.5 14.3603 24.421 14.2197 24.2803C14.079 24.1397 14 23.9489 14 23.75V17.96L19.61 21.3875C19.724 21.4533 19.8533 21.488 19.985 21.488C20.1167 21.488 20.246 21.4533 20.36 21.3875L26 17.96V23.75Z" fill="url(#paint1_linear_108_23005)"/>
<defs>
<linearGradient id="paint0_linear_108_23005" x1="0" y1="0" x2="52.4" y2="49.6" gradientUnits="userSpaceOnUse">
<stop stop-color="#FF9385"/>
<stop offset="1" stop-color="#FFBF85"/>
</linearGradient>
<linearGradient id="paint1_linear_108_23005" x1="12.5" y1="14" x2="28.0235" y2="32.3675" gradientUnits="userSpaceOnUse">
<stop stop-color="#FF9385"/>
<stop offset="1" stop-color="#FFBF85"/>
</linearGradient>
</defs>
</svg>
