<svg width="40" height="40" viewBox="0 0 40 40" fill="none" xmlns="http://www.w3.org/2000/svg">
<circle cx="20" cy="20" r="19.5" stroke="url(#paint0_linear_108_23016)"/>
<path d="M24.4498 14.5501C24.2521 14.5501 24.0587 14.6087 23.8943 14.7186C23.7298 14.8285 23.6016 14.9847 23.526 15.1674C23.4503 15.3501 23.4305 15.5512 23.4691 15.7452C23.5076 15.9392 23.6029 16.1173 23.7427 16.2572C23.8826 16.397 24.0608 16.4923 24.2547 16.5309C24.4487 16.5695 24.6498 16.5496 24.8325 16.474C25.0152 16.3983 25.1714 16.2701 25.2813 16.1057C25.3912 15.9412 25.4498 15.7479 25.4498 15.5501C25.4498 15.2849 25.3445 15.0305 25.1569 14.843C24.9694 14.6554 24.7151 14.5501 24.4498 14.5501V14.5501ZM28.2832 16.5667C28.267 15.8753 28.1375 15.1913 27.8998 14.5417C27.6879 13.986 27.3582 13.4828 26.9332 13.0667C26.5205 12.6396 26.0161 12.3119 25.4582 12.1084C24.8104 11.8635 24.1255 11.7311 23.4332 11.7167C22.5498 11.6667 22.2665 11.6667 19.9998 11.6667C17.7332 11.6667 17.4498 11.6667 16.5665 11.7167C15.8741 11.7311 15.1893 11.8635 14.5415 12.1084C13.9846 12.314 13.4806 12.6414 13.0665 13.0667C12.6394 13.4794 12.3117 13.9838 12.1082 14.5417C11.8633 15.1895 11.7308 15.8744 11.7165 16.5667C11.6665 17.4501 11.6665 17.7334 11.6665 20.0001C11.6665 22.2667 11.6665 22.5501 11.7165 23.4334C11.7308 24.1258 11.8633 24.8106 12.1082 25.4584C12.3117 26.0164 12.6394 26.5208 13.0665 26.9334C13.4806 27.3588 13.9846 27.6862 14.5415 27.8917C15.1893 28.1366 15.8741 28.2691 16.5665 28.2834C17.4498 28.3334 17.7332 28.3334 19.9998 28.3334C22.2665 28.3334 22.5498 28.3334 23.4332 28.2834C24.1255 28.2691 24.8104 28.1366 25.4582 27.8917C26.0161 27.6883 26.5205 27.3606 26.9332 26.9334C27.36 26.5189 27.6901 26.0152 27.8998 25.4584C28.1375 24.8089 28.267 24.1248 28.2832 23.4334C28.2832 22.5501 28.3332 22.2667 28.3332 20.0001C28.3332 17.7334 28.3332 17.4501 28.2832 16.5667V16.5667ZM26.7832 23.3334C26.7771 23.8624 26.6813 24.3865 26.4998 24.8834C26.3668 25.2461 26.1531 25.5738 25.8748 25.8417C25.6045 26.1172 25.2775 26.3304 24.9165 26.4667C24.4196 26.6482 23.8955 26.744 23.3665 26.7501C22.5332 26.7917 22.2248 26.8001 20.0332 26.8001C17.8415 26.8001 17.5332 26.8001 16.6998 26.7501C16.1506 26.7604 15.6037 26.6758 15.0832 26.5001C14.738 26.3568 14.426 26.1441 14.1665 25.8751C13.8899 25.6074 13.6789 25.2794 13.5498 24.9167C13.3464 24.4127 13.2335 23.8767 13.2165 23.3334C13.2165 22.5001 13.1665 22.1917 13.1665 20.0001C13.1665 17.8084 13.1665 17.5001 13.2165 16.6667C13.2202 16.126 13.319 15.59 13.5082 15.0834C13.6549 14.7317 13.8801 14.4181 14.1665 14.1667C14.4197 13.8802 14.7326 13.6527 15.0832 13.5001C15.5911 13.3168 16.1265 13.221 16.6665 13.2167C17.4998 13.2167 17.8082 13.1667 19.9998 13.1667C22.1915 13.1667 22.4998 13.1667 23.3332 13.2167C23.8621 13.2228 24.3863 13.3186 24.8832 13.5001C25.2619 13.6406 25.6017 13.8691 25.8748 14.1667C26.1479 14.4227 26.3613 14.7357 26.4998 15.0834C26.685 15.5909 26.7809 16.1266 26.7832 16.6667C26.8248 17.5001 26.8332 17.8084 26.8332 20.0001C26.8332 22.1917 26.8248 22.5001 26.7832 23.3334ZM19.9998 15.7251C19.1547 15.7267 18.329 15.9789 17.627 16.4496C16.9251 16.9203 16.3785 17.5886 16.0562 18.3699C15.7339 19.1512 15.6504 20.0105 15.8163 20.8392C15.9822 21.6679 16.39 22.4289 16.9882 23.0259C17.5864 23.6229 18.3482 24.0293 19.1772 24.1935C20.0063 24.3578 20.8654 24.2727 21.6461 23.9489C22.4267 23.6251 23.0939 23.0771 23.5633 22.3743C24.0327 21.6714 24.2832 20.8452 24.2832 20.0001C24.2843 19.4377 24.1742 18.8806 23.9592 18.3609C23.7442 17.8412 23.4286 17.3691 23.0306 16.9718C22.6325 16.5745 22.1598 16.2598 21.6397 16.0459C21.1195 15.8319 20.5622 15.7229 19.9998 15.7251V15.7251ZM19.9998 22.7751C19.451 22.7751 18.9145 22.6123 18.4581 22.3074C18.0018 22.0025 17.6461 21.5691 17.4361 21.062C17.226 20.555 17.1711 19.997 17.2782 19.4587C17.3852 18.9204 17.6495 18.426 18.0376 18.0379C18.4257 17.6498 18.9202 17.3855 19.4585 17.2784C19.9968 17.1713 20.5547 17.2263 21.0618 17.4363C21.5688 17.6463 22.0022 18.002 22.3072 18.4584C22.6121 18.9147 22.7748 19.4512 22.7748 20.0001C22.7748 20.3645 22.7031 20.7253 22.5636 21.062C22.4241 21.3987 22.2197 21.7046 21.9621 21.9623C21.7044 22.22 21.3985 22.4244 21.0618 22.5638C20.7251 22.7033 20.3643 22.7751 19.9998 22.7751V22.7751Z" fill="url(#paint1_linear_108_23016)"/>
<defs>
<linearGradient id="paint0_linear_108_23016" x1="0" y1="0" x2="52.4" y2="49.6" gradientUnits="userSpaceOnUse">
<stop stop-color="#FF9385"/>
<stop offset="1" stop-color="#FFBF85"/>
</linearGradient>
<linearGradient id="paint1_linear_108_23016" x1="11.6665" y1="11.6667" x2="33.4998" y2="32.3334" gradientUnits="userSpaceOnUse">
<stop stop-color="#FF9385"/>
<stop offset="1" stop-color="#FFBF85"/>
</linearGradient>
</defs>
</svg>
