<svg width="32" height="32" viewBox="0 0 32 32" fill="none" xmlns="http://www.w3.org/2000/svg">
<circle cx="16" cy="16" r="16" fill="url(#paint0_linear_104_355)"/>
<path d="M20.812 11.7079C20.7384 11.6337 20.6509 11.5748 20.5544 11.5346C20.4579 11.4944 20.3544 11.4737 20.2499 11.4737C20.1454 11.4737 20.042 11.4944 19.9455 11.5346C19.849 11.5748 19.7615 11.6337 19.6879 11.7079L13.7899 17.6137L11.312 15.1279C11.2356 15.0541 11.1454 14.9961 11.0466 14.9571C10.9477 14.9182 10.8422 14.899 10.7359 14.9009C10.6297 14.9027 10.5249 14.9255 10.4275 14.9678C10.33 15.0102 10.2419 15.0713 10.1681 15.1477C10.0943 15.2241 10.0362 15.3143 9.99726 15.4132C9.9583 15.512 9.9392 15.6176 9.94104 15.7238C9.94288 15.83 9.96562 15.9348 10.008 16.0323C10.0503 16.1297 10.1114 16.2178 10.1879 16.2917L13.2279 19.3317C13.3015 19.4059 13.389 19.4648 13.4855 19.505C13.582 19.5451 13.6854 19.5658 13.7899 19.5658C13.8944 19.5658 13.9979 19.5451 14.0944 19.505C14.1909 19.4648 14.2784 19.4059 14.352 19.3317L20.812 12.8717C20.8924 12.7975 20.9565 12.7076 21.0004 12.6074C21.0442 12.5073 21.0669 12.3991 21.0669 12.2898C21.0669 12.1805 21.0442 12.0723 21.0004 11.9722C20.9565 11.872 20.8924 11.782 20.812 11.7079Z" fill="white"/>
<defs>
<linearGradient id="paint0_linear_104_355" x1="0" y1="0" x2="41.92" y2="39.68" gradientUnits="userSpaceOnUse">
<stop stop-color="#FF9385"/>
<stop offset="1" stop-color="#FFBF85"/>
</linearGradient>
</defs>
</svg>
