<svg width="40" height="40" viewBox="0 0 40 40" fill="none" xmlns="http://www.w3.org/2000/svg">
<circle cx="20" cy="20" r="19.5" stroke="url(#paint0_linear_108_23000)"/>
<path d="M25.58 20.75C25.415 20.75 25.2425 20.6975 25.0775 20.66C24.7433 20.5864 24.415 20.4886 24.095 20.3675C23.747 20.2409 23.3646 20.2475 23.0212 20.386C22.6778 20.5244 22.3978 20.785 22.235 21.1175L22.07 21.455C21.3395 21.0487 20.6682 20.5439 20.075 19.955C19.486 19.3618 18.9813 18.6905 18.575 17.96L18.89 17.75C19.2225 17.5872 19.483 17.3072 19.6215 16.9638C19.76 16.6204 19.7665 16.238 19.64 15.89C19.5209 15.5693 19.4232 15.2411 19.3475 14.9075C19.31 14.7425 19.28 14.57 19.2575 14.3975C19.1664 13.8692 18.8897 13.3908 18.4772 13.0485C18.0647 12.7061 17.5435 12.5222 17.0075 12.53H14.7575C14.4342 12.527 14.1141 12.5936 13.819 12.7254C13.5238 12.8572 13.2605 13.051 13.047 13.2937C12.8335 13.5364 12.6748 13.8223 12.5817 14.1318C12.4886 14.4413 12.4633 14.7673 12.5075 15.0875C12.907 18.2296 14.342 21.1489 16.5857 23.3845C18.8294 25.6201 21.754 27.0444 24.8975 27.4325H25.1825C25.7355 27.4333 26.2695 27.2304 26.6825 26.8625C26.9197 26.6503 27.1093 26.3902 27.2386 26.0993C27.3678 25.8084 27.4339 25.4934 27.4325 25.175V22.925C27.4233 22.4041 27.2336 21.9024 26.8957 21.5058C26.5579 21.1091 26.0928 20.842 25.58 20.75V20.75ZM25.955 25.25C25.9548 25.3565 25.932 25.4618 25.888 25.5587C25.8441 25.6557 25.78 25.7422 25.7 25.8125C25.6161 25.8849 25.5182 25.9389 25.4123 25.9712C25.3063 26.0035 25.1949 26.0133 25.085 26C22.2761 25.6399 19.6671 24.3549 17.6695 22.3477C15.6719 20.3406 14.3993 17.7255 14.0525 14.915C14.0405 14.8052 14.051 14.694 14.0832 14.5883C14.1154 14.4826 14.1688 14.3845 14.24 14.3C14.3102 14.22 14.3967 14.1559 14.4937 14.1119C14.5907 14.068 14.696 14.0452 14.8025 14.045H17.0525C17.2269 14.0411 17.3972 14.0982 17.5341 14.2063C17.671 14.3145 17.7659 14.467 17.8025 14.6375C17.8325 14.8425 17.87 15.045 17.915 15.245C18.0016 15.6404 18.1169 16.0289 18.26 16.4075L17.21 16.895C17.1202 16.9362 17.0394 16.9947 16.9723 17.0672C16.9052 17.1397 16.8531 17.2247 16.819 17.3174C16.7848 17.4101 16.7693 17.5086 16.7733 17.6073C16.7774 17.706 16.8009 17.8029 16.8425 17.8925C17.9219 20.2046 19.7804 22.0631 22.0925 23.1425C22.275 23.2175 22.4799 23.2175 22.6625 23.1425C22.756 23.1091 22.8419 23.0574 22.9153 22.9904C22.9887 22.9235 23.0481 22.8426 23.09 22.7525L23.555 21.7025C23.9427 21.8412 24.3384 21.9564 24.74 22.0475C24.94 22.0925 25.1425 22.13 25.3475 22.16C25.518 22.1966 25.6705 22.2915 25.7786 22.4284C25.8868 22.5653 25.9438 22.7356 25.94 22.91L25.955 25.25Z" fill="url(#paint1_linear_108_23000)"/>
<defs>
<linearGradient id="paint0_linear_108_23000" x1="0" y1="0" x2="52.4" y2="49.6" gradientUnits="userSpaceOnUse">
<stop stop-color="#FF9385"/>
<stop offset="1" stop-color="#FFBF85"/>
</linearGradient>
<linearGradient id="paint1_linear_108_23000" x1="12.4863" y1="12.5298" x2="32.012" y2="31.0659" gradientUnits="userSpaceOnUse">
<stop stop-color="#FF9385"/>
<stop offset="1" stop-color="#FFBF85"/>
</linearGradient>
</defs>
</svg>
