<svg width="32" height="32" viewBox="0 0 32 32" fill="none" xmlns="http://www.w3.org/2000/svg">
<rect width="32" height="32" rx="16" fill="#F79A38"/>
<path d="M20.99 18.2342C21.4098 17.8144 21.4698 17.2147 21.11 16.6151C20.8101 16.1353 20.2704 15.8954 19.6707 16.0154C19.4308 16.0753 19.191 16.1953 18.9511 16.3752C17.092 17.6345 14.5734 17.5746 12.7143 16.3152C12.5944 16.2552 12.4744 16.1953 12.3545 16.1353C11.6948 15.8355 11.0352 15.9554 10.6754 16.5551C10.2556 17.1548 10.3156 17.8144 10.8553 18.3542C10.9752 18.4741 11.0952 18.5341 11.1551 18.654L11.2151 18.714C12.0547 19.3736 13.0741 19.7934 14.3935 19.9733L13.6139 20.7529C12.9542 21.4126 12.2346 22.1322 11.5749 22.7918C11.395 22.9718 11.1551 23.2716 11.1551 23.6914C11.1551 24.2311 11.455 24.7708 11.9947 25.0107C12.1746 25.1306 12.3545 25.1306 12.5344 25.1306C12.8343 25.1306 13.1941 25.0107 13.4339 24.7108C14.3335 23.8113 15.0531 23.0917 15.7727 22.3721C15.8327 22.3121 15.8327 22.3121 15.8327 22.3121C15.8327 22.3121 15.8927 22.3121 15.8927 22.3721C16.3724 22.9118 16.9121 23.3915 17.3919 23.9313C17.6318 24.1711 17.8716 24.411 18.1115 24.6509C18.4114 24.9507 18.6512 25.0707 19.011 25.0707C19.5508 25.1306 20.1505 24.7708 20.3903 24.2311C20.6302 23.7513 20.5103 23.1517 20.0905 22.7918C19.4908 22.1922 18.8911 21.5325 18.2315 20.9328L17.212 19.9133C17.7517 19.8534 18.3514 19.7334 18.8911 19.4936C19.7906 19.1937 20.4503 18.7739 20.99 18.2342Z" fill="white"/>
<path d="M15.8327 16.5551C18.4114 16.5551 20.5103 14.5161 20.5103 11.9375C20.5103 10.6781 20.0305 9.47877 19.131 8.57924C18.2315 7.6797 17.092 7.19995 15.8927 7.19995C13.314 7.19995 11.2751 9.29886 11.2151 11.8175C11.2151 13.0769 11.6949 14.2163 12.5944 15.1158C13.4339 16.0753 14.5734 16.5551 15.8327 16.5551ZM14.5134 10.5582C14.8732 10.1984 15.3529 10.0185 15.8327 10.0185C16.9121 10.0185 17.6917 10.858 17.6917 11.8775C17.6917 12.957 16.8522 13.7365 15.8327 13.7365C14.7533 13.7365 13.9737 12.897 13.9737 11.8775C13.9737 11.3978 14.1536 10.918 14.5134 10.5582Z" fill="white"/>
<path d="M20.99 18.2342C21.4098 17.8144 21.4698 17.2147 21.11 16.6151C20.8101 16.1353 20.2704 15.8954 19.6707 16.0154C19.4308 16.0753 19.191 16.1953 18.9511 16.3752C17.092 17.6345 14.5734 17.5746 12.7143 16.3152C12.5944 16.2552 12.4744 16.1953 12.3545 16.1353C11.6948 15.8355 11.0352 15.9554 10.6754 16.5551C10.2556 17.1548 10.3156 17.8144 10.8553 18.3542C10.9752 18.4741 11.0952 18.5341 11.1551 18.654L11.2151 18.714C12.0547 19.3736 13.0741 19.7934 14.3935 19.9733L13.6139 20.7529C12.9542 21.4126 12.2346 22.1322 11.5749 22.7918C11.395 22.9718 11.1551 23.2716 11.1551 23.6914C11.1551 24.2311 11.455 24.7708 11.9947 25.0107C12.1746 25.1306 12.3545 25.1306 12.5344 25.1306C12.8343 25.1306 13.1941 25.0107 13.4339 24.7108C14.3335 23.8113 15.0531 23.0917 15.7727 22.3721C15.8327 22.3121 15.8327 22.3121 15.8327 22.3121C15.8327 22.3121 15.8927 22.3121 15.8927 22.3721C16.3724 22.9118 16.9121 23.3915 17.3919 23.9313C17.6318 24.1711 17.8716 24.411 18.1115 24.6509C18.4114 24.9507 18.6512 25.0707 19.011 25.0707C19.5508 25.1306 20.1505 24.7708 20.3903 24.2311C20.6302 23.7513 20.5103 23.1517 20.0905 22.7918C19.4908 22.1922 18.8911 21.5325 18.2315 20.9328L17.212 19.9133C17.7517 19.8534 18.3514 19.7334 18.8911 19.4936C19.7906 19.1937 20.4503 18.7739 20.99 18.2342Z" fill="white"/>
</svg>
