<svg width="32" height="32" viewBox="0 0 32 32" fill="none" xmlns="http://www.w3.org/2000/svg">
<rect width="32" height="32" rx="16" fill="#0077FF"/>
<path d="M16.7862 21.6C10.773 21.6 7.34311 17.3958 7.2002 10.4H10.2123C10.3113 15.5348 12.5319 17.7097 14.2908 18.1582V10.4H17.127V14.8285C18.8639 14.6379 20.6888 12.6198 21.3044 10.4H24.1406C23.9086 11.5513 23.4462 12.6413 22.7823 13.602C22.1183 14.5627 21.2672 15.3733 20.282 15.9832C21.3817 16.5405 22.353 17.3292 23.1318 18.2974C23.9106 19.2656 24.4793 20.3912 24.8002 21.6H21.6781C21.39 20.5501 20.8045 19.6103 19.9949 18.8983C19.1853 18.1863 18.1877 17.7338 17.127 17.5976V21.6H16.7862V21.6Z" fill="white"/>
</svg>
