<svg width="40" height="40" viewBox="0 0 40 40" fill="none" xmlns="http://www.w3.org/2000/svg">
<circle cx="20" cy="20" r="19.5" stroke="url(#paint0_linear_108_23010)"/>
<path d="M27.9823 15.7127C28.099 15.3252 27.9823 15.041 27.4307 15.041H25.6032C25.1382 15.041 24.9257 15.2868 24.809 15.5568C24.809 15.5568 23.8798 17.8227 22.5632 19.2918C22.1382 19.7193 21.944 19.8543 21.7123 19.8543C21.5965 19.8543 21.4282 19.7193 21.4282 19.3318V15.7127C21.4282 15.2477 21.294 15.041 20.9065 15.041H18.0348C17.7448 15.041 17.5698 15.256 17.5698 15.461C17.5698 15.901 18.2282 16.0027 18.2957 17.2427V19.9327C18.2957 20.5218 18.1898 20.6293 17.9565 20.6293C17.3373 20.6293 15.8307 18.3552 14.9365 15.7518C14.7623 15.246 14.5865 15.0418 14.1198 15.0418H12.2932C11.7707 15.0418 11.6665 15.2877 11.6665 15.5577C11.6665 16.0427 12.2857 18.4427 14.5507 21.6168C16.0607 23.7843 18.1865 24.9593 20.1232 24.9593C21.284 24.9593 21.4273 24.6985 21.4273 24.2485V22.6102C21.4273 22.0885 21.5382 21.9835 21.9057 21.9835C22.1757 21.9835 22.6407 22.1202 23.7248 23.1643C24.9632 24.4027 25.1682 24.9585 25.864 24.9585H27.6907C28.2123 24.9585 28.4732 24.6977 28.3232 24.1827C28.159 23.6702 27.5673 22.9243 26.7823 22.0418C26.3557 21.5385 25.7182 20.9968 25.524 20.726C25.2532 20.3768 25.3315 20.2227 25.524 19.9127C25.5248 19.9135 27.7507 16.7785 27.9823 15.7127Z" fill="url(#paint1_linear_108_23010)"/>
<defs>
<linearGradient id="paint0_linear_108_23010" x1="0" y1="0" x2="52.4" y2="49.6" gradientUnits="userSpaceOnUse">
<stop stop-color="#FF9385"/>
<stop offset="1" stop-color="#FFBF85"/>
</linearGradient>
<linearGradient id="paint1_linear_108_23010" x1="11.6665" y1="15.041" x2="23.3835" y2="33.7139" gradientUnits="userSpaceOnUse">
<stop stop-color="#FF9385"/>
<stop offset="1" stop-color="#FFBF85"/>
</linearGradient>
</defs>
</svg>
