<svg width="676" height="677" viewBox="0 0 676 677" fill="none" xmlns="http://www.w3.org/2000/svg">
<path opacity="0.0526316" d="M180.459 556.094L180.288 555.624L180.459 556.094ZM374.952 400.311L374.708 399.875L374.952 400.311ZM51.924 530.448C66.308 549.585 112.134 581.449 180.63 556.564L180.288 555.624C112.255 580.341 66.8755 548.675 52.7233 529.847L51.924 530.448ZM180.63 556.564C223.413 541.021 253.064 512.652 281.506 482.901C309.966 453.132 337.198 422.006 375.196 400.747L374.708 399.875C336.547 421.224 309.198 452.489 280.784 482.21C252.352 511.949 222.837 540.167 180.288 555.624L180.63 556.564ZM375.196 400.747C403.247 385.054 455.005 365.408 510.596 356.205C566.202 346.999 625.528 348.26 668.799 374.249L669.314 373.391C625.734 347.217 566.114 346 510.433 355.218C454.737 364.439 402.868 384.12 374.708 399.875L375.196 400.747Z" fill="url(#paint0_linear_29_22546)"/>
<path opacity="0.105263" d="M162.972 529.551L162.851 529.066L162.972 529.551ZM372.683 394.951L372.486 394.491L372.683 394.951ZM37.8213 490.609C50.1262 511.145 92.3704 547.624 163.092 530.036L162.851 529.066C92.6061 546.535 50.7856 510.299 38.6791 490.095L37.8213 490.609ZM163.092 530.036C207.265 519.05 239.72 493.935 271.116 467.321C302.532 440.69 332.868 412.581 372.88 395.41L372.486 394.491C332.302 411.735 301.834 439.97 270.469 466.558C239.085 493.162 206.782 518.14 162.851 529.066L163.092 530.036ZM372.88 395.41C402.418 382.735 455.946 368.607 512.194 365.265C568.457 361.922 627.327 369.377 667.645 399.747L668.246 398.948C627.641 368.362 568.474 360.919 512.135 364.267C455.78 367.615 402.138 381.767 372.486 394.491L372.88 395.41Z" fill="url(#paint1_linear_29_22546)"/>
<path opacity="0.157895" d="M147.559 502.041L147.489 501.546L147.559 502.041ZM370.19 390.099L370.042 389.622L370.19 390.099ZM27.1644 450.231C37.2553 471.94 75.455 512.636 147.628 502.536L147.489 501.546C75.8032 511.577 37.9995 471.169 28.0712 449.809L27.1644 450.231ZM147.628 502.536C192.707 496.228 227.609 474.643 261.615 451.456C295.643 428.255 328.75 403.471 370.338 390.577L370.042 389.622C328.277 402.571 295.024 427.466 261.052 450.63C227.059 473.808 192.322 495.272 147.489 501.546L147.628 502.536ZM370.338 390.577C401.04 381.058 455.751 372.603 512.04 375.159C568.345 377.715 626.113 391.283 663.035 425.701L663.717 424.969C626.531 390.306 568.467 376.72 512.086 374.16C455.69 371.599 400.862 380.066 370.042 389.622L370.338 390.577Z" fill="url(#paint2_linear_29_22546)"/>
<path opacity="0.210526" d="M134.31 473.787L134.293 473.288L134.31 473.787ZM367.424 385.73L367.326 385.24L367.424 385.73ZM19.9914 409.676C27.7579 432.321 61.4944 476.787 134.328 474.287L134.293 473.288C61.9513 475.771 28.5786 431.632 20.9373 409.352L19.9914 409.676ZM134.328 474.287C179.819 472.725 216.786 454.907 253.03 435.402C289.296 415.885 324.813 394.697 367.521 386.221L367.326 385.24C324.436 393.752 288.764 415.036 252.556 434.521C216.326 454.019 179.536 471.735 134.293 473.288L134.328 474.287ZM367.521 386.221C399.049 379.963 454.344 377.273 510.058 385.699C565.787 394.127 621.82 413.659 654.943 451.747L655.698 451.091C622.339 412.731 566.012 393.149 510.208 384.71C454.389 376.269 398.977 378.958 367.326 385.24L367.521 386.221Z" fill="url(#paint3_linear_29_22546)"/>
<path opacity="0.263158" d="M123.293 445.02L123.328 444.521L123.293 445.02ZM364.333 381.812L364.288 381.314L364.333 381.812ZM16.3012 369.31C21.658 392.643 50.5618 440.392 123.257 445.518L123.328 444.521C51.1225 439.429 22.5463 392.043 17.2758 369.086L16.3012 369.31ZM123.257 445.518C168.663 448.721 207.29 434.864 245.374 419.254C283.481 403.635 321.019 386.275 364.379 382.31L364.288 381.314C320.742 385.296 283.041 402.734 244.995 418.329C206.926 433.932 168.485 447.705 123.328 444.521L123.257 445.518ZM364.379 382.31C396.388 379.382 451.662 382.487 506.19 396.69C560.733 410.897 614.417 436.179 643.377 477.521L644.196 476.947C615.029 435.311 561.059 409.949 506.442 395.722C451.811 381.492 396.421 378.375 364.288 381.314L364.379 382.31Z" fill="url(#paint4_linear_29_22546)"/>
<path opacity="0.315789" d="M114.547 415.974L114.634 415.482L114.547 415.974ZM360.875 378.308L360.881 377.808L360.875 378.308ZM16.0557 329.496C18.9443 353.261 42.6987 403.769 114.46 416.466L114.634 415.482C43.3569 402.87 19.8904 352.757 17.0484 329.375L16.0557 329.496ZM114.46 416.466C159.282 424.397 199.146 414.654 238.653 403.111C278.185 391.56 317.331 378.22 360.868 378.808L360.881 377.808C317.158 377.217 277.84 390.619 238.373 402.151C198.881 413.69 159.211 423.369 114.634 415.482L114.46 416.466ZM360.868 378.808C393.008 379.243 447.654 388.108 500.399 407.933C553.158 427.763 603.905 458.519 628.385 502.661L629.26 502.176C604.605 457.719 553.581 426.854 500.751 406.997C447.906 387.134 393.146 378.244 360.881 377.808L360.868 378.808Z" fill="url(#paint5_linear_29_22546)"/>
<path opacity="0.368421" d="M108.09 386.889L108.228 386.409L108.09 386.889ZM357.005 375.178L357.064 374.681L357.005 375.178ZM19.1774 290.589C19.566 314.526 37.9107 367.241 107.952 387.37L108.228 386.409C38.6594 366.415 20.5596 314.124 20.1773 290.573L19.1774 290.589ZM107.952 387.37C151.7 399.942 192.363 394.419 232.861 387.069C273.383 379.714 313.709 370.538 356.946 375.674L357.064 374.681C313.642 369.523 273.139 378.742 232.682 386.085C192.2 393.433 151.736 398.912 108.228 386.409L107.952 387.37ZM356.946 375.674C388.865 379.466 442.285 393.995 492.668 419.225C543.065 444.461 590.32 480.352 610.052 526.812L610.972 526.421C591.1 479.63 543.581 443.601 493.116 418.33C442.637 393.053 389.106 378.488 357.064 374.681L356.946 375.674Z" fill="url(#paint6_linear_29_22546)"/>
<path opacity="0.421053" d="M103.913 358.006L104.1 357.542L103.913 358.006ZM352.688 372.377L352.799 371.89L352.688 372.377ZM25.5534 252.94C23.4378 276.786 36.1718 331.129 103.725 358.469L104.1 357.542C37.0027 330.387 24.468 276.49 26.5495 253.028L25.5534 252.94ZM103.725 358.469C145.919 375.546 186.938 374.304 227.981 371.226C269.05 368.147 310.115 363.237 352.578 372.865L352.799 371.89C310.154 362.221 268.909 367.155 227.907 370.229C186.879 373.305 146.063 374.525 104.1 357.542L103.725 358.469ZM352.578 372.865C383.925 379.972 435.534 400.005 483.004 430.363C530.487 460.73 573.732 501.364 588.499 549.631L589.455 549.339C574.583 500.727 531.091 459.928 483.543 429.521C435.983 399.106 384.268 379.024 352.799 371.89L352.578 372.865Z" fill="url(#paint7_linear_29_22546)"/>
<path opacity="0.473684" d="M101.982 329.56L102.217 329.118L101.982 329.56ZM347.893 369.857L348.054 369.383L347.893 369.857ZM35.0347 216.879C30.4381 240.373 37.4219 295.75 101.747 330.001L102.217 329.118C38.3258 295.098 31.4936 240.186 36.0161 217.071L35.0347 216.879ZM101.747 330.001C141.925 351.395 182.849 354.447 223.989 355.677C265.155 356.907 306.508 356.317 347.732 370.33L348.054 369.383C306.653 355.31 265.119 355.906 224.019 354.677C182.895 353.448 142.175 350.395 102.217 329.118L101.747 330.001ZM347.732 370.33C378.165 380.675 427.397 405.993 471.434 441.147C515.483 476.31 554.242 521.242 563.883 570.789L564.865 570.598C555.155 520.698 516.166 475.576 472.058 440.365C427.938 405.145 378.605 379.769 348.054 369.383L347.732 370.33Z" fill="url(#paint8_linear_29_22546)"/>
<path opacity="0.526316" d="M102.241 301.784L102.521 301.37L102.241 301.784ZM342.592 367.565L342.802 367.111L342.592 367.565ZM47.4383 182.722C40.411 205.608 41.5682 261.411 101.961 302.199L102.521 301.37C42.5352 260.857 41.4802 205.532 48.3942 183.016L47.4383 182.722ZM101.961 302.199C139.682 327.675 180.063 334.988 220.849 340.511C261.661 346.038 302.849 349.773 342.383 368.019L342.802 367.111C303.099 348.787 261.73 345.038 220.984 339.52C180.213 333.999 140.036 326.706 102.521 301.37L101.961 302.199ZM342.383 368.019C371.567 381.489 417.883 411.814 458.004 451.378C498.136 490.953 531.987 539.69 536.396 589.973L537.392 589.886C532.952 539.244 498.893 490.295 458.707 450.666C418.51 411.027 372.099 380.633 342.802 367.111L342.383 368.019Z" fill="url(#paint9_linear_29_22546)"/>
<path opacity="0.578947" d="M104.605 274.903L104.927 274.52L104.605 274.903ZM336.764 365.447L337.02 365.017L336.764 365.447ZM62.5482 150.765C53.1673 172.79 48.4851 228.409 104.284 275.286L104.927 274.52C49.5047 227.959 54.2385 172.827 63.4682 151.157L62.5482 150.765ZM104.284 275.286C139.135 304.565 178.53 316.059 218.516 325.816C258.526 335.578 299.098 343.598 336.508 365.876L337.02 365.017C299.45 342.644 258.699 334.591 218.753 324.844C178.783 315.091 139.588 303.639 104.927 274.52L104.284 275.286ZM336.508 365.876C364.125 382.323 407.017 417.323 442.783 460.865C478.558 504.418 507.129 556.426 506.258 606.895L507.258 606.912C508.135 556.084 479.38 503.842 443.556 460.23C407.722 416.606 364.743 381.527 337.02 365.017L336.508 365.876Z" fill="url(#paint10_linear_29_22546)"/>
<path opacity="0.631579" d="M108.972 249.133L109.331 248.786L108.972 249.133ZM330.394 363.449L330.693 363.048L330.394 363.449ZM80.121 121.279C68.4891 142.203 58.0189 197.028 108.612 249.48L109.331 248.786C59.0799 196.687 69.5507 142.352 80.995 121.765L80.121 121.279ZM108.612 249.48C140.212 282.243 178.19 297.791 216.937 311.674C255.707 325.566 295.219 337.783 330.095 363.849L330.693 363.048C295.668 336.87 255.982 324.602 217.274 310.733C178.542 296.855 140.759 281.369 109.331 248.786L108.612 249.48ZM330.095 363.849C355.841 383.092 394.84 422.384 425.859 469.426C456.885 516.48 479.863 571.19 473.722 621.291L474.714 621.413C480.9 570.954 457.762 515.993 426.693 468.875C395.616 421.745 356.54 382.366 330.693 363.048L330.095 363.849Z" fill="url(#paint11_linear_29_22546)"/>
<path opacity="0.684211" d="M115.212 224.677L115.606 224.37L115.212 224.677ZM323.472 361.511L323.811 361.144L323.472 361.511ZM99.8833 94.5079C86.1281 114.102 69.9844 167.531 114.817 224.985L115.606 224.37C71.0752 167.304 87.1683 114.36 100.702 95.0825L99.8833 94.5079ZM114.817 224.985C142.82 260.871 178.964 280.304 216.048 298.161C253.154 316.029 291.172 332.309 323.132 361.878L323.811 361.144C291.714 331.449 253.528 315.099 216.482 297.26C179.412 279.41 143.455 260.059 115.606 224.37L114.817 224.985ZM323.132 361.878C346.726 383.707 381.404 426.861 407.336 476.887C433.274 526.926 450.408 583.739 439.062 632.923L440.037 633.148C451.463 583.613 434.197 526.534 408.224 476.427C382.243 426.306 347.497 383.058 323.811 361.144L323.132 361.878Z" fill="url(#paint12_linear_29_22546)"/>
<path opacity="0.736842" d="M123.179 201.723L123.603 201.459L123.179 201.723ZM315.995 359.577L316.371 359.247L315.995 359.577ZM121.541 70.6647C105.813 88.7132 84.1729 140.163 122.755 201.988L123.603 201.459C85.2815 140.05 106.821 89.0792 122.295 71.3217L121.541 70.6647ZM122.755 201.988C146.853 240.604 180.768 263.709 215.781 285.345C250.817 306.993 286.925 327.158 315.619 359.906L316.371 359.247C287.554 326.359 251.286 306.108 216.307 284.494C181.307 262.867 147.569 239.863 123.603 201.459L122.755 201.988ZM315.619 359.906C336.802 384.082 366.779 430.624 387.34 483.086C407.905 535.563 419.007 593.855 402.582 641.584L403.528 641.91C420.069 593.84 408.864 535.269 388.271 482.722C367.672 430.16 337.636 383.516 316.371 359.247L315.619 359.906Z" fill="url(#paint13_linear_29_22546)"/>
<path opacity="0.789474" d="M132.706 180.445L133.156 180.226L132.706 180.445ZM307.966 357.589L308.374 357.3L307.966 357.589ZM144.777 49.9331C127.248 66.2387 100.349 115.144 132.257 180.664L133.156 180.226C101.463 115.148 128.212 66.708 145.458 50.6652L144.777 49.9331ZM132.257 180.664C152.186 221.588 183.5 248.111 216.061 273.288C248.641 298.48 282.443 322.309 307.558 357.877L308.374 357.3C283.153 321.58 249.2 297.648 216.672 272.497C184.124 247.33 152.976 220.926 133.156 180.226L132.257 180.664ZM307.558 357.877C326.097 384.134 351.046 433.555 366.009 487.879C380.977 542.218 385.924 601.351 364.601 647.102L365.507 647.524C386.983 601.447 381.962 542.026 366.973 487.614C351.981 433.187 326.986 383.659 308.374 357.3L307.558 357.877Z" fill="url(#paint14_linear_29_22546)"/>
<path opacity="0.842105" d="M143.61 160.995L144.08 160.824L143.61 160.995ZM299.394 355.488L299.83 355.244L299.394 355.488ZM169.257 32.4596C150.12 46.8437 118.256 92.6696 143.14 161.166L144.08 160.824C119.364 92.7902 151.029 47.4111 169.858 33.259L169.257 32.4596ZM143.14 161.166C158.683 203.948 187.053 233.6 216.803 262.042C246.572 290.502 277.698 317.733 298.957 355.732L299.83 355.244C278.48 317.083 247.215 289.733 217.494 261.319C187.756 232.888 159.538 203.373 144.08 160.824L143.14 161.166ZM298.957 355.732C314.651 383.783 334.296 435.541 343.5 491.132C352.706 546.737 351.445 606.064 325.456 649.335L326.313 649.85C352.487 606.27 353.705 546.649 344.486 490.968C335.266 435.272 315.584 383.404 299.83 355.244L298.957 355.732Z" fill="url(#paint15_linear_29_22546)"/>
<path opacity="0.894737" d="M155.692 143.507L156.178 143.387L155.692 143.507ZM290.292 353.218L290.752 353.021L290.292 353.218ZM194.634 18.3569C174.099 30.6619 137.619 72.9061 155.207 143.628L156.178 143.387C138.708 73.1417 174.944 31.3213 195.148 19.2147L194.634 18.3569ZM155.207 143.628C166.193 187.801 191.308 220.255 217.922 251.652C244.553 283.067 272.662 313.403 289.833 353.416L290.752 353.021C273.508 312.838 245.273 282.37 218.685 251.005C192.081 219.621 167.103 187.318 156.178 143.387L155.207 143.628ZM289.833 353.416C302.508 382.954 316.636 436.481 319.978 492.73C323.321 548.993 315.866 607.862 285.496 648.18L286.295 648.782C316.881 608.177 324.324 549.01 320.977 492.67C317.628 436.316 303.476 382.674 290.752 353.021L289.833 353.416Z" fill="url(#paint16_linear_29_22546)"/>
<path opacity="0.947368" d="M168.741 128.094L169.236 128.025L168.741 128.094ZM280.682 350.726L281.16 350.578L280.682 350.726ZM220.551 7.7C198.842 17.791 158.146 55.9906 168.246 128.163L169.236 128.025C159.204 56.3388 199.613 18.5351 220.972 8.60682L220.551 7.7ZM168.246 128.163C174.554 173.243 196.139 208.145 219.326 242.151C242.527 276.178 267.311 309.286 280.205 350.874L281.16 350.578C268.211 308.812 243.315 275.56 220.152 241.588C196.974 207.594 175.509 172.857 169.236 128.025L168.246 128.163ZM280.205 350.874C289.723 381.575 298.179 436.287 295.623 492.576C293.067 548.881 279.498 606.648 245.081 643.571L245.812 644.253C280.475 607.067 294.062 549.002 296.622 492.621C299.182 436.226 290.715 381.398 281.16 350.578L280.205 350.874Z" fill="url(#paint17_linear_29_22546)"/>
<path d="M182.533 114.846L183.033 114.829L182.533 114.846ZM270.591 347.959L271.081 347.862L270.591 347.959ZM246.644 0.527043C223.999 8.29352 179.534 42.03 182.034 114.863L183.033 114.829C180.55 42.487 224.689 9.11422 246.969 1.47296L246.644 0.527043ZM182.034 114.863C183.595 160.355 201.414 197.322 220.919 233.566C240.436 269.832 261.624 305.349 270.1 348.057L271.081 347.862C262.569 304.971 241.285 269.299 221.8 233.092C202.302 196.862 184.586 160.072 183.033 114.829L182.034 114.863ZM270.1 348.057C276.357 379.585 279.047 434.88 270.622 490.594C262.194 546.323 242.662 602.356 204.574 635.479L205.23 636.233C243.59 602.874 263.171 546.548 271.611 490.744C280.052 434.924 277.363 379.512 271.081 347.862L270.1 348.057Z" fill="url(#paint18_linear_29_22546)"/>
<defs>
<linearGradient id="paint0_linear_29_22546" x1="72.2163" y1="591.371" x2="31.9803" y2="363.689" gradientUnits="userSpaceOnUse">
<stop stop-color="#FF9385"/>
<stop offset="1" stop-color="#FFBF85"/>
</linearGradient>
<linearGradient id="paint1_linear_29_22546" x1="51.6343" y1="553.319" x2="35.4179" y2="322.679" gradientUnits="userSpaceOnUse">
<stop stop-color="#FF9385"/>
<stop offset="1" stop-color="#FFBF85"/>
</linearGradient>
<linearGradient id="paint2_linear_29_22546" x1="34.3467" y1="514.042" x2="42.3277" y2="282.97" gradientUnits="userSpaceOnUse">
<stop stop-color="#FF9385"/>
<stop offset="1" stop-color="#FFBF85"/>
</linearGradient>
<linearGradient id="paint3_linear_29_22546" x1="20.4644" y1="473.888" x2="52.5552" y2="244.916" gradientUnits="userSpaceOnUse">
<stop stop-color="#FF9385"/>
<stop offset="1" stop-color="#FFBF85"/>
</linearGradient>
<linearGradient id="paint4_linear_29_22546" x1="10.0596" y1="433.22" x2="65.9087" y2="208.857" gradientUnits="userSpaceOnUse">
<stop stop-color="#FF9385"/>
<stop offset="1" stop-color="#FFBF85"/>
</linearGradient>
<linearGradient id="paint5_linear_29_22546" x1="3.16797" y1="392.403" x2="82.1635" y2="175.107" gradientUnits="userSpaceOnUse">
<stop stop-color="#FF9385"/>
<stop offset="1" stop-color="#FFBF85"/>
</linearGradient>
<linearGradient id="paint6_linear_29_22546" x1="-0.215332" y1="351.805" x2="101.061" y2="143.956" gradientUnits="userSpaceOnUse">
<stop stop-color="#FF9385"/>
<stop offset="1" stop-color="#FFBF85"/>
</linearGradient>
<linearGradient id="paint7_linear_29_22546" x1="-0.131836" y1="311.792" x2="122.316" y2="115.669" gradientUnits="userSpaceOnUse">
<stop stop-color="#FF9385"/>
<stop offset="1" stop-color="#FFBF85"/>
</linearGradient>
<linearGradient id="paint8_linear_29_22546" x1="3.33838" y1="272.724" x2="145.616" y2="90.4741" gradientUnits="userSpaceOnUse">
<stop stop-color="#FF9385"/>
<stop offset="1" stop-color="#FFBF85"/>
</linearGradient>
<linearGradient id="paint9_linear_29_22546" x1="10.0781" y1="234.949" x2="170.626" y2="68.5691" gradientUnits="userSpaceOnUse">
<stop stop-color="#FF9385"/>
<stop offset="1" stop-color="#FFBF85"/>
</linearGradient>
<linearGradient id="paint10_linear_29_22546" x1="19.9336" y1="198.8" x2="196.994" y2="50.1135" gradientUnits="userSpaceOnUse">
<stop stop-color="#FF9385"/>
<stop offset="1" stop-color="#FFBF85"/>
</linearGradient>
<linearGradient id="paint11_linear_29_22546" x1="32.7187" y1="164.597" x2="224.351" y2="35.2327" gradientUnits="userSpaceOnUse">
<stop stop-color="#FF9385"/>
<stop offset="1" stop-color="#FFBF85"/>
</linearGradient>
<linearGradient id="paint12_linear_29_22546" x1="48.2129" y1="132.633" x2="252.318" y2="24.009" gradientUnits="userSpaceOnUse">
<stop stop-color="#FF9385"/>
<stop offset="1" stop-color="#FFBF85"/>
</linearGradient>
<linearGradient id="paint13_linear_29_22546" x1="66.1685" y1="103.18" x2="280.509" y2="16.4857" gradientUnits="userSpaceOnUse">
<stop stop-color="#FF9385"/>
<stop offset="1" stop-color="#FFBF85"/>
</linearGradient>
<linearGradient id="paint14_linear_29_22546" x1="86.3086" y1="76.4824" x2="308.537" y2="12.6676" gradientUnits="userSpaceOnUse">
<stop stop-color="#FF9385"/>
<stop offset="1" stop-color="#FFBF85"/>
</linearGradient>
<linearGradient id="paint15_linear_29_22546" x1="108.334" y1="52.752" x2="336.016" y2="12.516" gradientUnits="userSpaceOnUse">
<stop stop-color="#FF9385"/>
<stop offset="1" stop-color="#FFBF85"/>
</linearGradient>
<linearGradient id="paint16_linear_29_22546" x1="131.924" y1="32.1699" x2="362.564" y2="15.9536" gradientUnits="userSpaceOnUse">
<stop stop-color="#FF9385"/>
<stop offset="1" stop-color="#FFBF85"/>
</linearGradient>
<linearGradient id="paint17_linear_29_22546" x1="156.74" y1="14.8823" x2="387.812" y2="22.8633" gradientUnits="userSpaceOnUse">
<stop stop-color="#FF9385"/>
<stop offset="1" stop-color="#FFBF85"/>
</linearGradient>
<linearGradient id="paint18_linear_29_22546" x1="182.433" y1="1" x2="411.405" y2="33.0909" gradientUnits="userSpaceOnUse">
<stop stop-color="#FF9385"/>
<stop offset="1" stop-color="#FFBF85"/>
</linearGradient>
</defs>
</svg>
