<svg width="511" height="649" viewBox="0 0 511 649" fill="none" xmlns="http://www.w3.org/2000/svg">
<path opacity="0.0344828" d="M-105.629 393.435L49.2956 420.552C62.7972 422.915 71.9879 435.565 70.0633 449.136L47.9786 604.857C44.532 629.159 75.0908 642.765 90.8449 623.942L191.791 503.332C200.588 492.821 216.139 491.187 226.929 499.639L350.745 596.625C370.069 611.762 397.131 592.1 388.707 569.045L334.729 421.318C330.024 408.444 336.384 394.16 349.099 389.041L495 330.306C517.77 321.14 514.274 287.872 490.095 283.64L335.171 256.523C321.67 254.16 312.479 241.51 314.404 227.939L336.488 72.2182C339.935 47.9155 309.376 34.3098 293.622 53.1328L192.676 173.743C183.879 184.254 168.328 185.888 157.538 177.436L33.7215 80.4495C14.3981 65.3132 -12.6641 84.9751 -4.23996 108.03L49.7383 255.757C54.4425 268.631 48.0826 282.915 35.3675 288.034L-110.533 346.769C-133.303 355.935 -129.807 389.203 -105.629 393.435Z" stroke="url(#paint0_linear_70_23143)"/>
<path opacity="0.0689655" d="M-97.6532 408.83L55.369 427.424C68.9757 429.077 78.8159 441.229 77.6042 454.882L63.9764 608.426C61.8064 632.876 93.0354 644.864 107.783 625.242L200.397 502.018C208.632 491.061 224.076 488.615 235.294 496.491L361.453 585.065C381.542 599.169 407.538 578.118 397.919 555.535L337.51 413.717C332.139 401.107 337.742 386.509 350.172 380.732L489.959 315.762C512.218 305.416 506.986 272.377 482.619 269.416L329.597 250.823C315.99 249.169 306.15 237.018 307.362 223.365L320.989 69.8203C323.159 45.3706 291.93 33.3829 277.183 53.0047L184.569 176.229C176.334 187.186 160.89 189.632 149.672 181.756L23.5128 93.182C3.42368 79.0779 -22.5724 100.129 -12.9532 122.712L47.4553 264.53C52.8268 277.14 47.2232 291.738 34.7934 297.515L-104.994 362.485C-127.253 372.831 -122.02 405.87 -97.6532 408.83Z" stroke="url(#paint1_linear_70_23143)"/>
<path opacity="0.103448" d="M-88.6482 421.75L61.6659 432.072C75.3405 433.011 85.8032 444.631 85.3077 458.328L79.8604 608.898C78.9729 633.428 110.786 643.765 124.487 623.398L208.582 498.383C216.233 487.01 231.527 483.759 243.142 491.037L370.816 571.039C391.615 584.073 416.474 561.69 405.686 539.642L339.468 404.305C333.444 391.993 338.275 377.122 350.386 370.702L483.507 300.135C505.194 288.639 498.239 255.919 473.751 254.237L323.437 243.916C309.762 242.977 299.299 231.357 299.795 217.659L305.242 67.0898C306.13 42.5599 274.316 32.223 260.616 52.5897L176.52 177.605C168.87 188.978 153.575 192.229 141.96 184.951L14.287 104.949C-6.51272 91.9151 -31.3715 114.298 -20.5836 136.346L45.6349 271.683C51.659 283.995 46.8272 298.866 34.7167 305.285L-98.4039 375.853C-120.091 387.349 -113.136 420.069 -88.6482 421.75Z" stroke="url(#paint2_linear_70_23143)"/>
<path opacity="0.137931" d="M-79.4789 436.238L68.0382 438.627C81.7432 438.849 92.7997 449.906 93.0217 463.611L95.4113 611.128C95.8089 635.67 128.12 644.328 140.735 623.272L216.563 496.714C223.608 484.956 238.712 480.909 250.692 487.569L379.64 559.258C401.093 571.185 424.746 547.532 412.819 526.078L341.13 397.13C334.47 385.15 338.517 370.047 350.275 363.002L476.834 287.174C497.89 274.558 489.232 242.247 464.689 241.85L317.172 239.46C303.467 239.238 292.411 228.182 292.189 214.477L289.799 66.9597C289.401 42.417 257.09 33.7594 244.475 54.8152L168.647 181.374C161.602 193.132 146.499 197.179 134.519 190.518L5.57033 118.829C-15.883 106.902 -39.5362 130.556 -27.6092 152.009L44.0799 280.957C50.7401 292.937 46.6932 308.041 34.9353 315.085L-91.6235 390.913C-112.679 403.529 -104.022 435.84 -79.4789 436.238Z" stroke="url(#paint3_linear_70_23143)"/>
<path opacity="0.172414" d="M-69.4221 448.384L74.5405 443.175C88.2383 442.68 99.8583 453.143 100.797 466.817L110.666 610.535C112.347 635.024 145.067 641.979 156.563 620.291L224.034 493.012C230.454 480.902 245.325 476.07 257.637 482.094L387.035 545.407C409.083 556.195 431.466 531.336 418.432 510.536L341.941 388.465C334.662 376.85 337.913 361.556 349.287 353.905L468.816 273.5C489.183 259.799 478.846 227.986 454.316 228.873L310.353 234.082C296.656 234.577 285.036 224.114 284.097 210.44L274.228 66.7215C272.547 42.2333 239.827 35.2784 228.331 56.9656L160.86 184.245C154.44 196.355 139.569 201.187 127.257 195.163L-2.14076 131.85C-24.1889 121.062 -46.5719 145.921 -33.5384 166.721L42.9534 288.792C50.2315 300.407 46.9805 315.701 35.6075 323.352L-83.922 403.757C-104.289 417.458 -93.9519 449.271 -69.4221 448.384Z" stroke="url(#paint4_linear_70_23143)"/>
<path opacity="0.206897" d="M-59.2336 460.212L81.1397 447.753C94.7928 446.541 106.944 456.382 108.598 469.988L125.597 609.885C128.557 634.251 161.596 639.484 171.942 617.225L231.339 489.429C237.116 476.999 251.714 471.395 264.324 476.767L393.977 531.993C416.56 541.613 437.611 515.617 423.507 495.527L342.531 380.19C334.655 368.972 337.101 353.528 348.058 345.293L460.712 260.623C480.334 245.876 468.346 214.647 443.896 216.817L303.523 229.276C289.87 230.488 277.718 220.647 276.065 207.041L259.066 67.1445C256.105 42.7779 223.066 37.5451 212.721 59.8042L153.324 187.6C147.547 200.03 132.949 205.634 120.338 200.262L-9.31466 145.036C-31.8972 135.416 -52.9484 161.412 -38.8442 181.502L42.132 296.839C50.008 308.057 47.562 323.501 36.6049 331.736L-76.0493 416.406C-95.6711 431.153 -83.6834 462.382 -59.2336 460.212Z" stroke="url(#paint5_linear_70_23143)"/>
<path opacity="0.241379" d="M-48.2825 470.847L87.8012 451.547C101.372 449.623 114.022 458.813 116.385 472.315L140.083 607.702C144.315 631.881 177.582 635.377 186.749 612.607L238.076 485.105C243.195 472.39 257.48 466.03 270.354 470.734L399.451 517.906C422.506 526.33 442.168 499.268 427.032 479.944L342.276 371.742C333.824 360.951 335.458 345.401 345.969 336.604L451.369 248.388C470.192 232.634 456.587 202.075 432.284 205.521L296.2 224.821C282.629 226.746 269.979 217.555 267.616 204.053L243.919 68.6662C239.687 44.4878 206.42 40.9912 197.253 63.7613L145.925 191.263C140.807 203.978 126.522 210.338 113.648 205.634L-15.4495 158.463C-38.5045 150.038 -58.1664 177.101 -43.0302 196.424L41.7256 304.626C50.1779 315.417 48.5435 330.967 38.0324 339.765L-67.3677 427.981C-86.1907 443.735 -72.5851 474.294 -48.2825 470.847Z" stroke="url(#paint6_linear_70_23143)"/>
<path opacity="0.275862" d="M-36.2175 481.28L95.5963 455.486C109.048 452.854 122.162 461.37 125.228 474.73L155.278 605.639C160.769 629.562 194.174 631.313 202.137 608.095L245.705 481.043C250.152 468.078 264.084 460.979 277.186 465.003L405.582 504.434C429.046 511.64 447.265 483.586 431.138 465.081L342.893 363.824C333.888 353.49 334.706 337.876 344.742 328.54L443.088 237.062C461.061 220.344 445.874 190.539 421.785 195.253L289.972 221.047C276.52 223.679 263.406 215.163 260.34 201.804L230.29 70.8946C224.798 46.9709 191.394 45.2202 183.431 68.4388L139.863 195.49C135.416 208.456 121.484 215.554 108.381 211.53L-20.014 172.099C-43.4784 164.893 -61.6969 192.948 -45.5701 211.452L42.6749 312.71C51.6804 323.043 50.862 338.658 40.8258 347.993L-57.5201 439.471C-75.4928 456.189 -60.3065 485.994 -36.2175 481.28Z" stroke="url(#paint7_linear_70_23143)"/>
<path opacity="0.310345" d="M-24.4959 490.679L102.412 458.868C115.708 455.536 129.249 463.354 133.011 476.534L168.915 602.345C175.651 625.949 209.102 625.949 215.838 602.345L251.743 476.534C255.505 463.354 269.046 455.536 282.342 458.868L409.249 490.679C433.059 496.647 449.784 467.678 432.711 450.043L341.708 356.043C332.174 346.195 332.174 330.559 341.708 320.711L432.711 226.711C449.784 209.075 433.059 180.106 409.25 186.074L282.342 217.885C269.046 221.218 255.505 213.4 251.743 200.219L215.838 74.4084C209.102 50.8049 175.651 50.8048 168.915 74.4083L133.011 200.219C129.249 213.4 115.708 221.218 102.412 217.885L-24.4958 186.074C-48.3051 180.106 -65.0305 209.075 -47.9574 226.711L43.0458 320.711C52.5797 330.559 52.5797 346.195 43.0458 356.043L-47.9573 450.043C-65.0305 467.678 -48.3052 496.647 -24.4959 490.679Z" stroke="url(#paint8_linear_70_23143)"/>
<path opacity="0.344828" d="M-11.6637 499.993L110.412 462.503C123.515 458.479 137.447 465.578 141.893 478.543L183.317 599.341C191.279 622.559 224.684 620.809 230.176 596.885L258.746 472.419C261.813 459.06 274.927 450.544 288.378 453.176L413.704 477.7C437.793 482.414 452.979 452.609 435.006 435.892L341.501 348.916C331.465 339.581 330.647 323.966 339.652 313.633L423.554 217.36C439.68 198.855 421.462 170.801 397.997 178.007L275.922 215.497C262.819 219.521 248.887 212.422 244.441 199.456L203.017 78.659C195.054 55.4404 161.65 57.1911 156.158 81.1148L127.587 205.58C124.521 218.94 111.407 227.456 97.9555 224.823L-27.3701 200.299C-51.4591 195.585 -66.6453 225.39 -48.6726 242.108L44.8324 329.083C54.8686 338.419 55.687 354.034 46.6815 364.367L-37.2199 460.64C-53.3466 479.145 -35.128 507.199 -11.6637 499.993Z" stroke="url(#paint9_linear_70_23143)"/>
<path opacity="0.37931" d="M0.738479 507.441L117.416 464.807C130.291 460.103 144.575 466.463 149.694 479.178L196.084 594.414C205.25 617.184 238.518 613.687 242.75 589.509L264.167 467.146C266.53 453.645 279.18 444.454 292.751 446.379L415.744 463.822C440.046 467.268 453.652 436.71 434.829 420.956L339.568 341.226C329.057 332.429 327.423 316.878 335.875 306.088L412.477 208.295C427.614 188.971 407.952 161.909 384.897 170.333L268.219 212.967C255.344 217.671 241.06 211.311 235.941 198.596L189.551 83.3599C180.385 60.5898 147.117 64.0865 142.885 88.2648L121.468 210.627C119.105 224.129 106.455 233.32 92.8837 231.395L-30.1085 213.952C-54.4111 210.505 -68.0167 241.064 -49.1937 256.818L46.0668 336.548C56.5778 345.345 58.2123 360.896 49.76 371.686L-26.8422 469.479C-41.9784 488.803 -22.3165 515.865 0.738479 507.441Z" stroke="url(#paint10_linear_70_23143)"/>
<path opacity="0.413793" d="M13.2625 513.917L124.668 466.463C137.278 461.091 151.876 466.695 157.653 479.125L208.691 588.935C219.036 611.194 252.075 605.961 255.036 581.595L269.642 461.388C271.296 447.781 283.447 437.941 297.101 439.152L417.718 449.858C442.167 452.028 454.155 420.799 434.533 406.051L337.734 333.298C326.777 325.063 324.331 309.619 332.207 298.401L401.787 199.296C415.891 179.207 394.84 153.211 372.257 162.83L260.851 210.284C248.241 215.656 233.643 210.052 227.866 197.623L176.829 87.8125C166.483 65.5534 133.444 70.7863 130.483 95.1529L115.877 215.36C114.224 228.967 102.072 238.807 88.4189 237.595L-32.1981 226.89C-56.6479 224.72 -68.6356 255.949 -49.0138 270.696L47.7853 343.449C58.7425 351.684 61.1885 367.128 53.3125 378.346L-16.2671 477.451C-30.3713 497.54 -9.32004 523.536 13.2625 513.917Z" stroke="url(#paint11_linear_70_23143)"/>
<path opacity="0.448276" d="M26.2903 519.702L131.934 468.012C144.246 461.988 159.117 466.819 165.537 478.93L220.622 582.844C232.118 604.531 264.838 597.576 266.519 573.088L274.576 455.753C275.515 442.078 287.135 431.616 300.833 432.111L418.368 436.363C442.897 437.251 453.234 405.437 432.868 391.737L335.281 326.092C323.908 318.441 320.657 303.147 327.935 291.532L390.385 191.87C403.418 171.07 381.035 146.212 358.987 156.999L253.343 208.69C241.031 214.714 226.16 209.882 219.74 197.771L164.656 93.8573C153.159 72.1701 120.439 79.125 118.758 103.613L110.701 220.948C109.762 234.623 98.1422 245.086 84.4443 244.59L-33.0904 240.338C-57.6202 239.451 -67.957 271.264 -47.5903 284.964L49.9966 350.609C61.3697 358.26 64.6206 373.555 57.3426 385.169L-5.10733 484.831C-18.1408 505.631 4.24217 530.49 26.2903 519.702Z" stroke="url(#paint12_linear_70_23143)"/>
<path opacity="0.482759" d="M39.4651 524.627L139.522 469C151.502 462.34 166.605 466.387 173.65 478.145L232.488 576.347C245.104 597.403 277.415 588.745 277.812 564.202L279.666 449.738C279.888 436.033 290.945 424.976 304.65 424.754L419.115 422.9C443.658 422.502 452.315 390.191 431.259 377.576L333.057 318.738C321.299 311.693 317.252 296.589 323.912 284.609L379.539 184.553C391.466 163.099 367.813 139.446 346.36 151.373L246.303 207C234.323 213.66 219.22 209.613 212.175 197.855L153.337 99.6529C140.721 78.5971 108.41 87.2548 108.012 111.797L106.158 226.262C105.936 239.967 94.8797 251.024 81.1747 251.246L-33.2902 253.1C-57.8328 253.498 -66.4905 285.809 -45.4348 298.424L52.7676 357.262C64.5255 364.307 68.5725 379.411 61.9122 391.391L6.28558 491.447C-5.64145 512.901 18.0118 536.554 39.4651 524.627Z" stroke="url(#paint13_linear_70_23143)"/>
<path opacity="0.517241" d="M52.0981 529.039L146.158 470.099C157.773 462.821 173.067 466.072 180.718 477.445L242.673 569.546C256.373 589.913 288.186 579.576 287.299 555.046L283.286 444.119C282.79 430.421 293.253 418.801 306.928 417.862L417.667 410.258C442.155 408.576 449.11 375.857 427.423 364.36L329.35 312.372C317.24 305.952 312.408 291.081 318.432 278.769L367.217 179.064C378.004 157.016 353.146 134.633 332.346 147.666L238.286 206.606C226.671 213.884 211.377 210.633 203.726 199.26L141.771 107.159C128.071 86.7918 96.2576 97.1287 97.145 121.659L101.158 232.586C101.654 246.284 91.191 257.904 77.5164 258.843L-33.2231 266.447C-57.7114 268.128 -64.6661 300.848 -42.9789 312.345L55.0939 364.333C67.2043 370.753 72.0362 385.624 66.0121 397.936L17.2275 497.641C6.43955 519.689 31.2983 542.072 52.0981 529.039Z" stroke="url(#paint14_linear_70_23143)"/>
<path opacity="0.551724" d="M65.9167 532.696L154.2 470.714C165.418 462.838 180.862 465.284 189.097 476.241L253.905 562.471C268.653 582.092 299.882 570.105 297.712 545.655L288.176 438.209C286.964 424.555 296.804 412.404 310.411 410.75L417.492 397.739C441.858 394.778 447.091 361.739 424.832 351.394L327.013 305.929C314.583 300.152 308.979 285.554 314.351 272.944L356.623 173.703C366.242 151.121 340.246 130.07 320.157 144.174L231.874 206.156C220.656 214.032 205.212 211.586 196.977 200.628L132.168 114.399C117.421 94.7776 86.1919 106.765 88.362 131.215L97.8983 238.661C99.1101 252.314 89.2698 264.466 75.6631 266.119L-31.4179 279.131C-55.7845 282.092 -61.0174 315.131 -38.7582 325.476L59.0611 370.941C71.4909 376.718 77.0945 391.315 71.723 403.926L29.4507 503.166C19.8315 525.749 45.8276 546.8 65.9167 532.696Z" stroke="url(#paint15_linear_70_23143)"/>
<path opacity="0.586207" d="M78.1685 535.021L160.347 470.649C171.138 462.197 186.688 463.831 195.486 474.343L262.485 554.393C278.239 573.216 308.798 559.611 305.352 535.308L290.694 431.953C288.769 418.382 297.96 405.732 311.461 403.369L414.287 385.371C438.465 381.139 441.962 347.872 419.192 338.705L322.355 299.722C309.64 294.603 303.28 280.319 307.984 267.445L343.81 169.396C352.235 146.341 325.172 126.679 305.849 141.815L223.67 206.187C212.88 214.639 197.329 213.005 188.532 202.494L121.532 122.443C105.778 103.62 75.2192 117.226 78.6659 141.528L93.3238 244.883C95.2485 258.454 86.0577 271.104 72.5562 273.467L-30.2696 291.465C-54.4479 295.697 -57.9444 328.965 -35.1744 338.131L61.6624 377.114C74.3776 382.233 80.7374 396.517 76.0333 409.392L40.2069 507.44C31.7828 530.495 58.845 550.157 78.1685 535.021Z" stroke="url(#paint16_linear_70_23143)"/>
<path opacity="0.62069" d="M91.6572 536.691L167.993 470.164C178.327 461.158 193.942 461.977 203.277 472.013L272.241 546.155C288.959 564.127 318.764 548.941 314.05 524.852L294.604 425.479C291.972 412.028 300.488 398.914 313.848 395.848L412.538 373.194C436.462 367.702 438.213 334.297 414.994 326.335L319.212 293.489C306.246 289.043 299.148 275.111 303.172 262.008L332.898 165.212C340.104 141.748 312.05 123.529 293.545 139.656L217.209 206.183C206.875 215.188 191.26 214.37 181.925 204.334L112.961 130.192C96.2431 112.219 66.4383 127.406 71.1521 151.495L90.5977 250.867C93.23 264.319 84.7139 277.433 71.3545 280.499L-27.336 303.153C-51.2597 308.645 -53.0104 342.05 -29.7918 350.012L65.9901 382.858C78.9558 387.304 86.0545 401.236 82.0306 414.339L52.3042 511.134C45.0982 534.599 73.1524 552.817 91.6572 536.691Z" stroke="url(#paint17_linear_70_23143)"/>
<path opacity="0.655172" d="M104.575 538.207L174.825 470.197C184.672 460.663 200.309 460.663 210.157 470.197L280.407 538.207C298.042 555.281 327.011 538.555 321.043 514.746L297.269 419.902C293.937 406.607 301.755 393.066 314.935 389.304L408.959 362.471C432.563 355.735 432.563 322.284 408.959 315.548L314.935 288.715C301.755 284.953 293.937 271.412 297.269 258.116L321.043 163.273C327.011 139.464 298.042 122.738 280.407 139.811L210.157 207.822C200.309 217.356 184.672 217.356 174.825 207.822L104.575 139.811C86.9392 122.738 57.97 139.464 63.9381 163.273L87.7118 258.116C91.0445 271.412 83.2263 284.953 70.0458 288.715L-23.978 315.548C-47.5814 322.284 -47.5814 355.735 -23.9779 362.471L70.0458 389.304C83.2263 393.066 91.0445 406.607 87.7118 419.902L63.9381 514.746C57.97 538.555 86.9392 555.281 104.575 538.207Z" stroke="url(#paint18_linear_70_23143)"/>
<path opacity="0.689655" d="M117.792 538.16L182.253 468.859C191.589 458.823 207.203 458.005 217.537 467.01L288.889 529.193C307.394 545.32 335.448 527.101 328.242 503.637L300.456 413.161C296.433 400.059 303.531 386.127 316.497 381.68L406.025 350.979C429.244 343.017 427.493 309.612 403.569 304.12L311.322 282.945C297.963 279.879 289.447 266.765 292.079 253.314L310.255 160.429C314.969 136.34 285.164 121.154 268.446 139.127L203.985 208.427C194.65 218.464 179.035 219.282 168.701 210.276L97.3492 148.093C78.8445 131.967 50.7903 150.185 57.9963 173.65L85.7818 264.125C89.8057 277.228 82.707 291.16 69.7413 295.606L-19.7868 326.307C-43.0054 334.27 -41.2547 367.675 -17.331 373.166L74.9158 394.341C88.2752 397.408 96.7913 410.521 94.159 423.973L75.983 516.857C71.2692 540.946 101.074 556.133 117.792 538.16Z" stroke="url(#paint19_linear_70_23143)"/>
<path opacity="0.724138" d="M129.454 537.136L187.966 467.225C196.764 456.714 212.314 455.08 223.105 463.532L294.874 519.75C314.198 534.886 341.26 515.224 332.836 492.169L301.548 406.54C296.843 393.666 303.203 379.382 315.918 374.263L400.489 340.218C423.259 331.051 419.763 297.784 395.584 293.552L305.783 277.833C292.282 275.47 283.091 262.82 285.016 249.249L297.817 158.986C301.264 134.683 270.705 121.078 254.951 139.901L196.438 209.812C187.64 220.323 172.09 221.957 161.299 213.505L89.5298 157.287C70.2063 142.151 43.1441 161.813 51.5683 184.868L82.8566 270.497C87.5607 283.371 81.2009 297.656 68.4857 302.774L-16.0851 336.82C-38.8552 345.986 -35.3586 379.254 -11.1803 383.486L78.6209 399.204C92.1224 401.567 101.313 414.217 99.3885 427.788L86.5872 518.051C83.1406 542.354 113.699 555.959 129.454 537.136Z" stroke="url(#paint20_linear_70_23143)"/>
<path opacity="0.758621" d="M142.488 535.63L195.38 465.256C203.616 454.299 219.059 451.853 230.277 459.729L302.328 510.314C322.417 524.418 348.413 503.367 338.794 480.784L304.294 399.791C298.923 387.181 304.526 372.583 316.956 366.806L396.789 329.701C419.048 319.356 413.815 286.317 389.449 283.356L302.057 272.737C288.45 271.084 278.61 258.932 279.822 245.279L287.605 157.589C289.775 133.139 258.546 121.151 243.798 140.773L190.906 211.147C182.671 222.104 167.227 224.55 156.009 216.674L83.9587 166.089C63.8696 151.985 37.8734 173.036 47.4927 195.619L81.9923 276.612C87.3638 289.222 81.7602 303.82 69.3304 309.597L-10.5027 346.702C-32.7619 357.048 -27.5291 390.087 -3.1624 393.047L84.2295 403.666C97.8362 405.32 107.676 417.471 106.465 431.124L98.6818 518.814C96.5118 543.264 127.741 555.252 142.488 535.63Z" stroke="url(#paint21_linear_70_23143)"/>
<path opacity="0.793103" d="M154.003 533.32L201.197 463.161C208.848 451.788 224.142 448.537 235.757 455.815L307.408 500.712C328.207 513.746 353.066 491.363 342.278 469.315L305.116 393.364C299.092 381.052 303.924 366.181 316.035 359.761L390.742 320.159C412.429 308.662 405.474 275.943 380.986 274.261L296.63 268.469C282.955 267.53 272.492 255.91 272.988 242.212L276.045 157.712C276.932 133.182 245.119 122.845 231.419 143.212L184.224 213.371C176.574 224.744 161.279 227.995 149.664 220.717L78.0137 175.819C57.214 162.786 32.3552 185.169 43.1432 207.217L80.3051 283.168C86.3292 295.48 81.4973 310.351 69.3869 316.771L-5.32063 356.373C-27.0078 367.869 -20.053 400.589 4.43522 402.271L88.7917 408.063C102.466 409.002 112.929 420.622 112.433 434.32L109.376 518.82C108.489 543.349 140.302 553.686 154.003 533.32Z" stroke="url(#paint22_linear_70_23143)"/>
<path opacity="0.827586" d="M164.972 530.597L206.821 460.751C213.866 448.993 228.969 444.946 240.949 451.606L312.114 491.171C333.567 503.098 357.221 479.444 345.294 457.991L305.729 386.826C299.069 374.846 303.116 359.743 314.874 352.698L384.72 310.85C405.776 298.234 397.118 265.923 372.575 265.525L291.163 264.207C277.458 263.985 266.401 252.928 266.179 239.223L264.86 157.81C264.463 133.268 232.152 124.61 219.536 145.666L177.688 215.512C170.643 227.27 155.54 231.317 143.56 224.657L72.3948 185.092C50.9415 173.165 27.2882 196.819 39.2152 218.272L78.7794 289.437C85.4397 301.417 81.3927 316.52 69.6348 323.565L-0.211207 365.413C-21.267 378.029 -12.6093 410.34 11.9333 410.737L93.346 412.056C107.051 412.278 118.108 423.335 118.33 437.04L119.648 518.452C120.046 542.995 152.357 551.653 164.972 530.597Z" stroke="url(#paint23_linear_70_23143)"/>
<path opacity="0.862069" d="M176.476 527.235L212.982 458.369C219.402 446.258 234.273 441.426 246.585 447.45L316.597 481.707C338.645 492.495 361.028 467.636 347.995 446.836L306.608 380.788C299.33 369.173 302.581 353.878 313.954 346.228L378.627 302.724C398.994 289.023 388.657 257.21 364.127 258.097L286.234 260.915C272.536 261.411 260.916 250.948 259.977 237.273L254.638 159.513C252.956 135.025 220.237 128.07 208.74 149.757L172.234 218.623C165.815 230.734 150.944 235.565 138.631 229.541L68.6191 195.285C46.5709 184.497 24.188 209.356 37.2215 230.156L78.6083 296.204C85.8864 307.819 82.6355 323.113 71.2624 330.764L6.58942 374.268C-13.7773 387.968 -3.44041 419.782 21.0894 418.895L98.9822 416.076C112.68 415.581 124.3 426.044 125.239 439.718L130.578 517.479C132.26 541.967 164.98 548.922 176.476 527.235Z" stroke="url(#paint24_linear_70_23143)"/>
<path opacity="0.896552" d="M187.525 523.52L219.056 455.677C224.834 443.247 239.431 437.644 252.042 443.015L320.87 472.333C343.452 481.952 364.504 455.956 350.399 435.867L307.412 374.639C299.536 363.42 301.982 347.977 312.939 339.741L372.743 294.794C392.365 280.046 380.377 248.817 355.928 250.987L281.409 257.601C267.755 258.813 255.604 248.973 253.95 235.366L244.926 161.1C241.966 136.733 208.927 131.501 198.581 153.76L167.049 221.602C161.272 234.032 146.674 239.635 134.064 234.264L65.2358 204.946C42.6533 195.327 21.602 221.323 35.7062 241.412L78.6936 302.641C86.5696 313.859 84.1235 329.302 73.1665 337.538L13.3624 382.486C-6.25937 397.233 5.72828 428.462 30.178 426.292L104.697 419.678C118.35 418.466 130.502 428.307 132.155 441.913L141.179 516.179C144.14 540.546 177.179 545.779 187.525 523.52Z" stroke="url(#paint25_linear_70_23143)"/>
<path opacity="0.931035" d="M197.179 518.32L223.817 452.148C228.936 439.433 243.22 433.073 256.095 437.777L323.094 462.259C346.15 470.683 365.811 443.621 350.675 424.297L306.688 368.142C298.236 357.351 299.87 341.8 310.381 333.003L365.083 287.22C383.906 271.466 370.3 240.907 345.997 244.354L275.371 254.37C261.8 256.295 249.15 247.104 246.787 233.602L234.489 163.338C230.257 139.16 196.989 135.663 187.823 158.433L161.184 224.605C156.066 237.32 141.781 243.68 128.907 238.976L61.907 214.495C38.8519 206.071 19.1901 233.133 34.3263 252.456L78.3135 308.612C86.7658 319.402 85.1314 334.953 74.6203 343.75L19.9189 389.533C1.09591 405.287 14.7015 435.846 39.0042 432.4L109.63 422.383C123.201 420.459 135.851 429.649 138.214 443.151L150.513 513.415C154.745 537.594 188.012 541.09 197.179 518.32Z" stroke="url(#paint26_linear_70_23143)"/>
<path opacity="0.965517" d="M206.474 513.814L228.597 449.301C233.043 436.336 246.975 429.237 260.078 433.261L325.273 453.283C348.738 460.489 366.956 432.435 350.829 413.93L306.021 362.514C297.016 352.181 297.834 336.566 307.87 327.231L357.807 280.781C375.78 264.063 360.594 234.258 336.505 238.972L269.574 252.069C256.122 254.701 243.008 246.185 239.942 232.826L224.683 166.354C219.192 142.43 185.787 140.68 177.825 163.898L155.702 228.411C151.255 241.377 137.323 248.476 124.22 244.452L59.0249 224.43C35.5605 217.224 17.3419 245.278 33.4687 263.783L78.2771 315.198C87.2825 325.532 86.4642 341.146 76.4279 350.482L26.4907 396.932C8.51798 413.65 23.7043 443.455 47.7933 438.741L114.725 425.643C128.176 423.011 141.29 431.527 144.357 444.886L159.615 511.358C165.107 535.282 198.511 537.033 206.474 513.814Z" stroke="url(#paint27_linear_70_23143)"/>
<path d="M215.462 507.969L233.223 445.732C236.984 432.552 250.526 424.734 263.821 428.066L326.6 443.803C350.41 449.771 367.135 420.801 350.062 403.166L305.044 356.666C295.51 346.818 295.51 331.182 305.044 321.334L350.062 274.834C367.135 257.199 350.41 228.229 326.6 234.197L263.821 249.934C250.526 253.266 236.984 245.448 233.223 232.268L215.462 170.031C208.725 146.428 175.275 146.428 168.538 170.031L150.777 232.268C147.016 245.448 133.474 253.266 120.179 249.934L57.3997 234.197C33.5904 228.229 16.8651 257.199 33.9382 274.834L78.9557 321.334C88.4896 331.182 88.4896 346.818 78.9557 356.666L33.9382 403.166C16.865 420.801 33.5904 449.771 57.3997 443.803L120.179 428.066C133.474 424.734 147.016 432.552 150.777 445.732L168.538 507.969C175.275 531.572 208.725 531.572 215.462 507.969Z" stroke="url(#paint28_linear_70_23143)"/>
<defs>
<linearGradient id="paint0_linear_70_23143" x1="-232" y1="-5" x2="825.748" y2="900.717" gradientUnits="userSpaceOnUse">
<stop stop-color="#FF9385"/>
<stop offset="1" stop-color="#FFBF85"/>
</linearGradient>
<linearGradient id="paint1_linear_70_23143" x1="-244" y1="22" x2="846.833" y2="861.218" gradientUnits="userSpaceOnUse">
<stop stop-color="#FF9385"/>
<stop offset="1" stop-color="#FFBF85"/>
</linearGradient>
<linearGradient id="paint2_linear_70_23143" x1="-254" y1="48" x2="864.406" y2="818.743" gradientUnits="userSpaceOnUse">
<stop stop-color="#FF9385"/>
<stop offset="1" stop-color="#FFBF85"/>
</linearGradient>
<linearGradient id="paint3_linear_70_23143" x1="-263" y1="76" x2="880.38" y2="778.654" gradientUnits="userSpaceOnUse">
<stop stop-color="#FF9385"/>
<stop offset="1" stop-color="#FFBF85"/>
</linearGradient>
<linearGradient id="paint4_linear_70_23143" x1="-270" y1="103" x2="892.746" y2="736.224" gradientUnits="userSpaceOnUse">
<stop stop-color="#FF9385"/>
<stop offset="1" stop-color="#FFBF85"/>
</linearGradient>
<linearGradient id="paint5_linear_70_23143" x1="-276" y1="130" x2="903.649" y2="694.495" gradientUnits="userSpaceOnUse">
<stop stop-color="#FF9385"/>
<stop offset="1" stop-color="#FFBF85"/>
</linearGradient>
<linearGradient id="paint6_linear_70_23143" x1="-280" y1="157" x2="910.919" y2="652.06" gradientUnits="userSpaceOnUse">
<stop stop-color="#FF9385"/>
<stop offset="1" stop-color="#FFBF85"/>
</linearGradient>
<linearGradient id="paint7_linear_70_23143" x1="-282" y1="184" x2="917.9" y2="610.615" gradientUnits="userSpaceOnUse">
<stop stop-color="#FF9385"/>
<stop offset="1" stop-color="#FFBF85"/>
</linearGradient>
<linearGradient id="paint8_linear_70_23143" x1="-283" y1="211" x2="920.295" y2="569.087" gradientUnits="userSpaceOnUse">
<stop stop-color="#FF9385"/>
<stop offset="1" stop-color="#FFBF85"/>
</linearGradient>
<linearGradient id="paint9_linear_70_23143" x1="-282" y1="238" x2="922.605" y2="528.811" gradientUnits="userSpaceOnUse">
<stop stop-color="#FF9385"/>
<stop offset="1" stop-color="#FFBF85"/>
</linearGradient>
<linearGradient id="paint10_linear_70_23143" x1="-280" y1="264" x2="920.443" y2="488.059" gradientUnits="userSpaceOnUse">
<stop stop-color="#FF9385"/>
<stop offset="1" stop-color="#FFBF85"/>
</linearGradient>
<linearGradient id="paint11_linear_70_23143" x1="-277" y1="289" x2="917.431" y2="447.786" gradientUnits="userSpaceOnUse">
<stop stop-color="#FF9385"/>
<stop offset="1" stop-color="#FFBF85"/>
</linearGradient>
<linearGradient id="paint12_linear_70_23143" x1="-272" y1="314" x2="911.124" y2="408.619" gradientUnits="userSpaceOnUse">
<stop stop-color="#FF9385"/>
<stop offset="1" stop-color="#FFBF85"/>
</linearGradient>
<linearGradient id="paint13_linear_70_23143" x1="-266" y1="338" x2="904.226" y2="370.124" gradientUnits="userSpaceOnUse">
<stop stop-color="#FF9385"/>
<stop offset="1" stop-color="#FFBF85"/>
</linearGradient>
<linearGradient id="paint14_linear_70_23143" x1="-259" y1="362" x2="893.271" y2="333.284" gradientUnits="userSpaceOnUse">
<stop stop-color="#FF9385"/>
<stop offset="1" stop-color="#FFBF85"/>
</linearGradient>
<linearGradient id="paint15_linear_70_23143" x1="-250" y1="385" x2="883.004" y2="297.272" gradientUnits="userSpaceOnUse">
<stop stop-color="#FF9385"/>
<stop offset="1" stop-color="#FFBF85"/>
</linearGradient>
<linearGradient id="paint16_linear_70_23143" x1="-241" y1="407" x2="867.973" y2="262.427" gradientUnits="userSpaceOnUse">
<stop stop-color="#FF9385"/>
<stop offset="1" stop-color="#FFBF85"/>
</linearGradient>
<linearGradient id="paint17_linear_70_23143" x1="-230" y1="428" x2="853.921" y2="228.524" gradientUnits="userSpaceOnUse">
<stop stop-color="#FF9385"/>
<stop offset="1" stop-color="#FFBF85"/>
</linearGradient>
<linearGradient id="paint18_linear_70_23143" x1="-218" y1="449" x2="836.45" y2="197.258" gradientUnits="userSpaceOnUse">
<stop stop-color="#FF9385"/>
<stop offset="1" stop-color="#FFBF85"/>
</linearGradient>
<linearGradient id="paint19_linear_70_23143" x1="-205" y1="468" x2="819.259" y2="166.009" gradientUnits="userSpaceOnUse">
<stop stop-color="#FF9385"/>
<stop offset="1" stop-color="#FFBF85"/>
</linearGradient>
<linearGradient id="paint20_linear_70_23143" x1="-192" y1="486" x2="798.039" y2="136.817" gradientUnits="userSpaceOnUse">
<stop stop-color="#FF9385"/>
<stop offset="1" stop-color="#FFBF85"/>
</linearGradient>
<linearGradient id="paint21_linear_70_23143" x1="-177" y1="503" x2="778.401" y2="108.674" gradientUnits="userSpaceOnUse">
<stop stop-color="#FF9385"/>
<stop offset="1" stop-color="#FFBF85"/>
</linearGradient>
<linearGradient id="paint22_linear_70_23143" x1="-162" y1="519" x2="755.164" y2="82.9577" gradientUnits="userSpaceOnUse">
<stop stop-color="#FF9385"/>
<stop offset="1" stop-color="#FFBF85"/>
</linearGradient>
<linearGradient id="paint23_linear_70_23143" x1="-147" y1="534" x2="731.809" y2="58.2829" gradientUnits="userSpaceOnUse">
<stop stop-color="#FF9385"/>
<stop offset="1" stop-color="#FFBF85"/>
</linearGradient>
<linearGradient id="paint24_linear_70_23143" x1="-130" y1="548" x2="707.316" y2="36.3469" gradientUnits="userSpaceOnUse">
<stop stop-color="#FF9385"/>
<stop offset="1" stop-color="#FFBF85"/>
</linearGradient>
<linearGradient id="paint25_linear_70_23143" x1="-113" y1="561" x2="683" y2="15.4046" gradientUnits="userSpaceOnUse">
<stop stop-color="#FF9385"/>
<stop offset="1" stop-color="#FFBF85"/>
</linearGradient>
<linearGradient id="paint26_linear_70_23143" x1="-96" y1="572" x2="656.03" y2="-3.54432" gradientUnits="userSpaceOnUse">
<stop stop-color="#FF9385"/>
<stop offset="1" stop-color="#FFBF85"/>
</linearGradient>
<linearGradient id="paint27_linear_70_23143" x1="-79" y1="583" x2="629.52" y2="-20.5861" gradientUnits="userSpaceOnUse">
<stop stop-color="#FF9385"/>
<stop offset="1" stop-color="#FFBF85"/>
</linearGradient>
<linearGradient id="paint28_linear_70_23143" x1="-61" y1="592" x2="601.86" y2="-35.44" gradientUnits="userSpaceOnUse">
<stop stop-color="#FF9385"/>
<stop offset="1" stop-color="#FFBF85"/>
</linearGradient>
</defs>
</svg>
